<svg width="178" height="108" viewBox="0 0 178 108" fill="none" xmlns="http://www.w3.org/2000/svg">
<rect width="178" height="108" fill="#F5F5F5"/>
<rect width="178" height="108" fill="white"/>
<path d="M111 81L94 87H83.5H73L68 85.4857L43 77.9143L31 81H11L17 58L31 35L52 19L68 15L84 11L111 19L122.5 27L127 19L142 11L156 19L163 35V46L156 40H148L129.5 60.5L111 81Z" fill="#9A8484" fill-opacity="0.25"/>
<path d="M94 87L111 81L129.5 60.5M94 87L104 46M94 87H83.5M148 40H156M148 40L122.5 27M148 40L145 25.5M148 40L129.5 60.5M156 40L163 46V35L156 19M156 40V19M156 19L142 11M156 19L145 25.5M142 11L127 19M142 11L145 25.5M127 19L122.5 27M127 19L145 25.5M118 35L122.5 27M118 35L111 19M118 35L127 40L129.195 58M122.5 27L111 19M111 19L84 11M84 11L68 15M84 11V19M52 19L31 35M52 19L68 15M52 19L81.0769 46M31 35L17 58M31 35L41.5 40.5M17 58L11 81H31M17 58L30 67.9572M31 81L43 77.9143M31 81L30 67.9572M66 72L94 58M66 72L43 77.9143M66 72L52 46M94 58L104 46M94 58L84 19M94 58L81.0769 46M104 46L129.195 58M104 46L111 25.5L84 19M104 46L84 19M43 77.9143L30 67.9572M43 77.9143L68 85.4857M129.5 60.5L129.195 58M84 19L68 15M84 19L81.0769 46M81.0769 46H52M52 46L41.5 40.5M30 67.9572L41.5 40.5M68 85.4857L73 87H83.5M68 85.4857V99M68 85.4857L73 99M68 85.4857L81.0769 99M90 95L83.5 87M83.5 87L98 92M83.5 87L81.0769 92" stroke="black" stroke-opacity="0.34"/>
</svg>
