<svg width="500" height="520" viewBox="0 0 500 520" fill="none" xmlns="http://www.w3.org/2000/svg">
<rect width="500" height="520" fill="#F5F5F5"/>
<rect width="500" height="520" fill="white"/>
<g filter="url(#filter0_f_0_1)">
<path d="M119 126C39 197.2 80.3333 297 111 338C128.406 361.27 155.561 368.434 178.425 364.427C195.845 361.375 210.773 351.838 217 338C231.4 306 300.333 332.667 333 350C360.667 359.667 421.2 369.2 442 330C462.8 290.8 378 201 333 161C321.994 151.217 308.081 141.479 292.462 132.841C238.543 103.022 164.282 86.3005 119 126Z" fill="#3B7FBD"/>
<path d="M217 338C210.773 351.838 195.845 361.375 178.425 364.427C179.43 377.557 182.489 389.884 188 401C234.4 494.6 332.474 514.551 372 499C433 475 510.4 302.4 456 280C401.6 257.6 433 194 433 154C433 114 397 84 333 106C321.157 110.071 307.143 119.532 292.462 132.841C308.081 141.479 321.994 151.217 333 161C378 201 462.8 290.8 442 330C421.2 369.2 360.667 359.667 333 350C300.333 332.667 231.4 306 217 338Z" fill="#BD3BB0" fill-opacity="0.5"/>
</g>
<defs>
<filter id="filter0_f_0_1" x="68.6086" y="94.5598" width="409.834" height="413.206" filterUnits="userSpaceOnUse" color-interpolation-filters="sRGB">
<feFlood flood-opacity="0" result="BackgroundImageFix"/>
<feBlend mode="normal" in="SourceGraphic" in2="BackgroundImageFix" result="shape"/>
<feGaussianBlur stdDeviation="2" result="effect1_foregroundBlur_0_1"/>
</filter>
</defs>
</svg>
