<svg width="365" height="226" viewBox="0 0 365 226" fill="none" xmlns="http://www.w3.org/2000/svg">
<rect width="365" height="226" fill="#F5F5F5"/>
<g id="fox" clip-path="url(#clip0_0_1)">
<rect width="365" height="226" fill="white"/>
<g id="fox">
<path d="M71 141L36 129L57 74L43 1L101 58L144 1L127 88.04L139 84L190 79H218L244 90H271L299 72L311 58L299 33L316.887 38.9623C315.908 36.7179 315.71 36.2052 317 39L316.959 39.1285C319.701 45.4055 328 64 328 64L317 84L295 101L259 124V141L278 185V209L251 217L239 209L251 196L239 166L223 164.545L226 177.273L229 190L213 205L200 201L209 190V163.273L151 158L144 209L127 225H101V217L108 209L119 173L107 165L95 173L71 185V201L53 190L60 173L95 157V143.5L71 141Z" fill="#FFC93E" fill-opacity="0.62" style="mix-blend-mode:darken"/>
<path d="M83 101L71 69M83 101L36 129M83 101L119 129M83 101L71 141M83 101L119 84M71 69L101 58M71 69L57 74M101 58L119 84M101 58L43 1L57 74M101 58L144 1M36 129L71 141M36 129L57 74M71 141L95 143.5M119 129V84M119 129L127 88.04M119 129L135 143.5M119 129L139 123.02M119 129L95 143.5M119 84L144 1M119 84L127 88.04M144 1L127 88.04M119 173L108 209M119 173L144 209M119 173L135 143.5M119 173L107 165M108 209L101 217V225H127M108 209L127 225M127 225L144 209M144 209L151 158M151 158L170.5 118.5M151 158L135 143.5M151 158L209 163.273M151 158L139 123.02M239 166L251 196M239 166L209 124M239 166L259 124M239 166L223 164.545M251 196L239 209L251 217L278 209M251 196L259 141M251 196L278 185M251 196L278 209M278 209V185M278 185L259 141M259 141V124M259 124L295 101M259 124L244 90M295 101L317 84M295 101L311 69M295 101L271 90M317 84L328 64M317 84L311 69M328 64L311 58M328 64C328 64 312.2 28.6 317 39M311 58L299 72M311 58L317 39M311 58L299 33L317 39M299 72L271 90M299 72L311 69M271 90H244M244 90L218 79M218 79H190M218 79L209 124M190 79L139 84M190 79L170.5 118.5M139 84L127 88.04M139 84L154.75 101.25M127 88.04L139 123.02M170.5 118.5L209 124M170.5 118.5L154.75 101.25M135 143.5L95 157M95 157L60 173M95 157L107 165M95 157L71 185M95 157V143.5M60 173L53 190L71 201V185M60 173L71 185M71 185L95 173L107 165M223 164.545L209 163.273M223 164.545L226 177.273M229 190L213 205M229 190H209M229 190L226 177.273M213 205L209 190M213 205L200 201L209 190M209 190V163.273M209 190L226 177.273M139 123.02L154.75 101.25" stroke="black" stroke-opacity="0.34"/>
</g>
</g>
<defs>
<clipPath id="clip0_0_1">
<rect width="365" height="226" fill="white"/>
</clipPath>
</defs>
</svg>
